<?xml version="1.0" standalone="no"?>
<!DOCTYPE svg PUBLIC "-//W3C//DTD SVG 20010904//EN" "http://www.w3.org/TR/2001/REC-SVG-20010904/DTD/svg10.dtd">
<svg version="1.0" xmlns="http://www.w3.org/2000/svg" width="214.000000pt" height="197.000000pt" viewBox="0 0 214.000000 197.000000" preserveAspectRatio="xMidYMid meet">

<g transform="translate(0.000000,197.000000) scale(0.100000,-0.100000)" stroke="none">
  
  <path fill="#ffffff" d="M940 1676 c-178 -36 -284 -88 -390 -195 -112 -113 -164 -236 -191 -448 -6 -54 -22 -129 -35 -168 -28 -82 -29 -104 -9 -172 23 -77 74 -136 149 -173 57 -28 64 -35 69 -67 3 -19 14 -55 23 -79 23 -60 81 -89 161 -80 54 6 57 5 89 -28 50 -51 141 -54 203 -5 23 19 24 18 53 -6 16 -14 42 -28 56 -31 15 -3 32 -7 39 -9 18 -6 86 15 107 33 10 10 27 36 38 60 18 40 21 42 61 42 155 1 310 61 394 154 102 112 144 237 146 436 1 145 -14 212 -75 331 -106 209 -277 333 -542 394 -90 21 -268 27 -346 11z"/>

  <g fill="#000000">
    <path d="M940 1676 c-178 -36 -284 -88 -390 -195 -112 -113 -164 -236 -191 -448 -6 -54 -22 -129 -35 -168 -28 -82 -29 -104 -9 -172 23 -77 74 -136 149 -173 57 -28 64 -35 69 -67 3 -19 14 -55 23 -79 23 -60 81 -89 161 -80 54 6 57 5 89 -28 50 -51 141 -54 203 -5 23 19 24 18 53 -6 16 -14 42 -28 56 -31 15 -3 32 -7 39 -9 18 -6 86 15 107 33 10 10 27 36 38 60 18 40 21 42 61 42 155 1 310 61 394 154 102 112 144 237 146 436 1 145 -14 212 -75 331 -106 209 -277 333 -542 394 -90 21 -268 27 -346 11z m350 -71 c36 -9 111 -38 168 -66 87 -42 115 -62 181 -128 134 -136 195 -280 194 -461 0 -127 -12 -180 -63 -286 -44 -90 -99 -148 -183 -191 -55 -27 -174 -53 -247 -53 -55 0 -78 -16 -87 -61 -9 -48 -46 -79 -94 -79 -33 0 -47 6 -75 34 -30 30 -34 40 -34 85 0 44 -3 51 -20 51 -17 0 -20 -7 -20 -51 0 -43 -5 -55 -29 -80 -24 -23 -38 -29 -75 -29 -39 0 -48 4 -69 33 -17 22 -26 51 -30 91 -7 67 -11 74 -32 56 -9 -7 -15 -29 -15 -55 0 -49 -22 -65 -82 -57 -48 5 -71 39 -78 112 l-5 55 -56 30 c-31 17 -71 41 -89 55 -64 49 -94 151 -66 228 8 23 27 111 42 195 14 84 37 181 51 217 71 179 207 298 400 350 89 24 318 27 413 5z"/>
    <path d="M511 1064 c-107 -96 -83 -301 39 -334 93 -25 160 39 168 163 8 138 -32 207 -119 207 -42 0 -55 -5 -88 -36z"/>
    <path d="M1095 999 c-44 -39 -53 -55 -65 -116 -26 -142 61 -263 191 -263 116 0 162 31 181 123 30 141 -81 286 -219 287 -45 0 -58 -5 -88 -31z"/>
    <path d="M801 656 c-34 -35 -39 -68 -11 -74 9 -1 23 11 33 28 24 40 43 38 67 -10 22 -43 31 -48 49 -26 10 11 9 21 -4 46 -40 78 -83 89 -134 36z"/>
  </g>

</g>
</svg>